<?xml version="1.0" encoding="iso-8859-1"?>
<!-- Uploaded to: SVG Repo, www.svgrepo.com, Generator: SVG Repo Mixer Tools -->
<svg height="800px" width="800px" version="1.1" id="Layer_1" xmlns="http://www.w3.org/2000/svg" xmlns:xlink="http://www.w3.org/1999/xlink" 
	 viewBox="0 0 392.567 392.567" xml:space="preserve">
<path style="fill:#FFFFFF;" d="M354.423,68.35c-10.15-6.335-22.497-7.176-33.228-2.263c-7.24,3.232-14.675-1.552-15.386-9.762
	c-0.129-11.895-6.271-22.691-16.226-29.026c-16.356-10.279-38.012-5.43-48.291,10.796c-12.8,20.234-1.164,81.131,10.602,120.436
	c40.792-6.465,101.042-22.238,113.519-41.891C374.657,101.578,372.071,79.534,354.423,68.35z"/>
<path style="fill:#194F82;" d="M365.93,49.796c-12.154-7.628-26.505-10.279-40.275-7.822c-3.62-13.576-12.283-25.471-24.63-33.293
	c-26.44-16.614-61.479-8.663-78.222,17.713c-23.79,37.56,7.37,136.469,10.99,147.653c1.939,5.042,5.624,7.758,11.83,7.434
	c11.636-1.616,114.877-16.549,138.085-53.139C400.322,99.316,392.952,68.156,365.93,49.796z M251.764,158.467
	c-11.766-39.305-23.402-100.202-10.602-120.436c10.279-16.226,31.935-21.204,48.291-10.796c9.956,6.335,16.097,17.261,16.226,29.026
	c0.711,8.21,8.21,12.994,15.386,9.762c10.731-4.848,23.208-4.073,33.228,2.263c17.713,11.184,20.17,33.228,10.796,48.291
	C352.806,136.293,292.556,152.002,251.764,158.467z"/>
<g>
	<path style="fill:#FFC10D;" d="M342.786,87.55c-3.426-3.943-13.317-0.646-13.317-0.646c-21.204,9.374-45.059-6.077-45.188-29.285
		c0-4.331-2.327-13.964-13.123-13.964c-4.59,0-8.727,2.263-11.055,5.947c-5.43,9.632-1.939,46.416,7.046,83.976
		c38.141-7.37,72.792-19.071,79.58-27.733C350.608,99.768,347.505,93.11,342.786,87.55z"/>
	<path style="fill:#FFC10D;" d="M138.116,105.586L82.261,23.744c-6.4,2.069-13.188,4.655-19.846,7.564l58.117,85.01
		C125.833,112.18,132.039,108.689,138.116,105.586z"/>
</g>
<path style="fill:#56ACE0;" d="M196.362,266.039c-25.018,1.551-51.911-15.58-71.887-45.188s-26.958-63.418-18.295-86.691
	L42.762,41.198C31.126,48.31,22.528,56.002,22.075,63.372c-5.818,85.463,134.788,292.073,208.873,307.006
	c7.499,1.228,17.907-4.202,28.509-12.024L196.362,266.039z"/>
<path style="fill:#FFC10D;" d="M234.309,246.386c-5.172,4.461-10.731,8.857-16.549,12.347l58.311,85.398
	c5.43-5.172,10.408-10.537,14.61-15.321L234.309,246.386z"/>
<path style="fill:#194F82;" d="M313.307,323.316l-67.943-99.426c-3.879-5.236-11.055-6.335-16.226-2.004
	c0,0-24.436,24.372-35.879,22.562c-16.485,0-35.879-13.705-50.683-35.749c-16.162-24.048-22.432-51.2-15.709-67.749
	c4.396-8.145,17.39-13.964,32.065-21.333c6.4-3.232,7.758-10.602,4.202-15.903L95.707,4.802c-2.651-3.879-7.434-5.56-11.895-4.331
	C70.237,4.285,2.746,24.908,0.225,61.885c-6.012,89.277,134.982,311.402,226.327,329.891c33.099,8.016,79.644-47.386,86.238-55.531
	C315.829,332.431,316.023,327.259,313.307,323.316z M276.136,344.132l-58.311-85.398c5.818-3.556,11.378-7.952,16.549-12.347
	l56.242,82.424C286.544,333.594,281.501,338.96,276.136,344.132z M230.883,370.378C156.798,355.445,16.257,148.835,22.075,63.372
	c0.453-7.24,9.051-15.063,20.816-22.109l63.418,92.897c-8.663,23.337-1.616,57.083,18.295,86.691
	c19.911,29.673,46.804,46.739,71.887,45.188l63.03,92.25C248.855,366.176,238.318,371.607,230.883,370.378z M82.261,23.744
	l55.855,81.842c-6.077,3.168-12.283,6.723-17.713,10.731l-58.117-85.01C69.008,28.398,75.861,25.813,82.261,23.744z"/>
</svg>